# xmcd
#
# Track frame offsets: 
#        150
#        13347
#        28608
#        50625
#        59408
#        70842
#        83972
#        101929
#        116502
#        131721
#        149955
#        167552
#        184097
#        196965
#        208978
#
# Disc length: 2935 seconds
#
# Revision: 2
# Processed by: cddbd v1.5.1PL2 Copyright (c) Steve Scherf et al.
# Submitted via: ExactAudioCopy v0.95b3
#
DISCID=ee0b750f
DTITLE=Various Artist - Soul
DYEAR=1900
DGENRE=
TTITLE0=Sam and Dave - Soul Man
TTITLE1=The Temptations - Papa Was A Rolling Stone
TTITLE2=Four Tops - Indestructable
TTITLE3=Al Jarreau - Ain't No Sunshine
TTITLE4=Solomon Burke - If You Need Me
TTITLE5=Ben E. King - Stand By Me
TTITLE6=Sniffi'n The Tears - Driver's Seat
TTITLE7=Billy Ocean - Love Really Hurts Without You
TTITLE8=The Real Thing - You To Me Are Everything
TTITLE9=Boris Gardiner - I Wanna Wake Up With You
TTITLE10=Percy Sledge - When A Man Loves A Woman
TTITLE11=Frankie Gaye - I Heard It Through The Grapevine
TTITLE12=The Three Degrees - When Will I See You Again
TTITLE13=Aaron Neville - Tell It Like It Is
TTITLE14=The Drifters - Save The Last Dance For Me
EXTD=
EXTT0=
EXTT1=
EXTT2=
EXTT3=
EXTT4=
EXTT5=
EXTT6=
EXTT7=
EXTT8=
EXTT9=
EXTT10=
EXTT11=
EXTT12=
EXTT13=
EXTT14=
PLAYORDER=
